<svg width="500" height="101" viewBox="0 0 500 101" fill="none" xmlns="http://www.w3.org/2000/svg">
<g clip-path="url(#clip0_698_1679)">
<path d="M404.409 23.8237C394.156 23.8237 389.013 28.3625 389.013 38.6319V77.3094H401.143V39.2196C401.143 35.84 402.662 34.2074 406.156 34.2074H416.768V23.8237H404.409Z" fill="#F05325"/>
<path d="M429.584 -0.32312C425.617 -0.32312 422.352 2.94218 422.352 7.02381C422.352 11.1054 425.617 14.2565 429.584 14.2565C433.552 14.2565 436.931 10.9912 436.931 7.02381C436.931 3.05646 433.666 -0.32312 429.584 -0.32312Z" fill="#F05325"/>
<path d="M435.657 23.5789H423.641V77.2114H435.657V23.5789Z" fill="#F05325"/>
<path d="M195.136 67.0729C191.642 67.0729 190.124 66.1423 190.124 62.6484V-0.241333H177.993V62.6484C177.993 73.2606 183.936 77.4565 193.258 77.4565H199.675V67.0729H195.136Z" fill="#F05325"/>
<path d="M338.532 23.6281C328.279 23.6281 323.136 28.1668 323.136 38.4362V77.2607H335.266V39.024C335.266 35.6444 336.785 34.0117 340.279 34.0117H350.891V23.6281H338.532Z" fill="#F05325"/>
<path d="M369.895 23.6769V10.2728H357.765V62.5013C357.765 72.6401 363.005 77.3095 373.161 77.3095H382.254V66.9258H374.907C371.642 66.9258 369.895 65.7666 369.895 62.5013V34.0606H382.254V23.6769H369.895Z" fill="#F05325"/>
<path d="M445.796 24.0033V100.526H457.926V72.6563C462.269 75.6604 467.526 77.44 473.192 77.44C488 77.44 500 65.44 500 50.6319C500 35.8237 488 23.8237 473.192 23.8237C467.51 23.8237 462.253 25.6033 457.926 28.6074V24.0033H445.796ZM457.926 50.6319C457.926 42.1911 464.767 35.3666 473.192 35.3666C481.616 35.3666 488.457 42.2074 488.457 50.6319C488.457 59.0563 481.616 65.8972 473.192 65.8972C464.767 65.8972 457.926 59.0563 457.926 50.6319Z" fill="#F05325"/>
<path d="M253.308 49.4727C253.308 33.1462 242.353 23.8237 228.002 23.8237C211.92 23.8237 202.01 35.0237 202.01 50.5176C202.01 66.0114 212.965 77.4563 228.246 77.4563C241.765 77.4563 248.883 71.3992 252.263 61.3747H239.202C237.226 65.2278 233.487 66.9747 228.002 66.9747C220.769 66.9747 214.826 62.4359 214.369 54.2727H253.079C253.308 51.7094 253.308 50.5339 253.308 49.489V49.4727ZM214.483 45.6196C215.528 38.5013 220.54 34.1911 228.361 34.1911C236.181 34.1911 240.491 38.2727 241.177 45.6196H214.483Z" fill="#F05325"/>
<path d="M158.417 59.0237C156.442 64.6237 152.703 66.9584 147.103 66.9584C137.895 66.9584 133.928 59.7257 133.928 50.5176C133.928 41.3094 138.466 34.1911 147.332 34.1911C152.932 34.1911 156.654 37.1135 158.401 42.1258H171.348C168.311 29.8809 159.217 23.8237 147.103 23.8237C130.777 23.8237 121.568 35.4809 121.568 50.5176C121.568 66.8441 132.409 77.4563 147.103 77.4563C161.797 77.4563 168.899 69.1788 171.348 59.04H158.401L158.417 59.0237Z" fill="#F05325"/>
<path d="M89.5346 26.028C69.1265 40.9505 51.5265 60.5423 35.7877 76.9831C34.6285 78.1422 33.1102 78.9586 31.4775 78.9586C29.502 78.9586 27.9837 77.7994 26.5796 75.6933C22.4979 69.6361 16.3265 54.9423 13.5184 48.526C11.298 43.2851 12.4735 38.9586 17.7143 36.7545C22.9551 34.6484 28.7837 34.3056 30.1877 40.2484C30.1877 40.2484 32.8653 50.6321 33.6816 53.6525C49.8938 38.6158 69.8285 22.6484 86.7264 12.8525C82.5305 4.91784 74.253 -0.437256 64.8163 -0.437256H24.8326C11.0694 -0.437256 0 10.6321 0 24.2811V64.379C0 78.0116 11.0694 89.0973 24.8326 89.0973H64.8163C78.4489 89.0973 89.5346 78.028 89.5346 64.379V26.028Z" fill="#F05325"/>
<path d="M300.883 24.0033V28.6074C296.54 25.6033 291.283 23.8237 285.618 23.8237C270.81 23.8237 258.81 35.8237 258.81 50.6319C258.81 65.44 270.81 77.44 285.618 77.44C291.299 77.44 296.556 75.6604 300.883 72.6563V77.2114H313.014V24.0033H300.883ZM285.618 65.8972C277.177 65.8972 270.352 59.0563 270.352 50.6319C270.352 42.2074 277.193 35.3666 285.618 35.3666C294.042 35.3666 300.883 42.2074 300.883 50.6319C300.883 59.0563 294.042 65.8972 285.618 65.8972Z" fill="#F05325"/>
</g>
<defs>
<clipPath id="clip0_698_1679">
<rect width="500" height="101" fill="white"/>
</clipPath>
</defs>
</svg>
