<svg width="35" height="35" viewBox="0 0 35 35" fill="none" xmlns="http://www.w3.org/2000/svg">
<rect width="34.6703" height="34.6703" rx="7.87962" fill="#FFE70D"/>
<path d="M20.3161 22.3041H22.9545C23.9368 22.3041 24.5689 21.5857 24.8606 19.9724C25.1345 18.4243 24.7785 17.7347 23.7937 17.7347H21.1514L21.5684 15.4115C22.035 12.76 23.4194 11.452 25.6955 11.452H26.1286C27.3936 11.452 28.085 11.2457 28.1824 10.6544C28.2603 10.2567 28.1464 9.70906 28.0198 9.1059C27.886 8.51885 27.7438 7.95339 27.541 7.63445C27.2353 7.09906 26.5325 6.83984 25.4296 6.83984C22.6959 6.83984 20.4473 7.59463 18.6746 9.12285C16.91 10.6413 15.7847 12.6829 15.2889 15.4521L14.8655 17.7347L9.34853 17.927C9.29391 17.927 7.0822 18.0973 5.39504 18.2277C5.13763 18.2476 5.12408 18.6204 5.37938 18.6589L8.6 19.1469C8.70754 19.1634 8.7956 19.2413 8.82439 19.3464L8.89509 19.6026C8.9442 19.7805 8.81973 19.9593 8.63556 19.9745L7.43106 20.0753C7.20497 20.0944 7.19524 20.4218 7.41963 20.4544L9.03142 20.6869C9.10551 20.6975 9.16478 20.753 9.18045 20.8263L9.2376 21.094C9.26427 21.2189 9.17325 21.3384 9.04539 21.3456L3.08384 21.6751C2.85225 21.6878 2.85521 22.0305 3.0868 22.0394C6.22909 22.158 10.1271 22.3045 10.1788 22.3045H14.023L13.0298 27.8994H19.3292L20.3152 22.3045L20.3161 22.3041Z" fill="#1642B9"/>
</svg>
