<svg width="133" height="111" viewBox="0 0 133 111" fill="none" xmlns="http://www.w3.org/2000/svg">
<path d="M91.5072 81.3063H105.38C110.544 81.3063 113.867 77.5294 115.401 69.0469C116.841 60.9074 114.969 57.2819 109.791 57.2819H95.8991L98.0917 45.067C100.545 31.1262 107.824 24.2494 119.791 24.2494H122.068C128.719 24.2494 132.354 23.1648 132.866 20.056C133.276 17.9649 132.677 15.0854 132.011 11.9142C131.308 8.82767 130.56 5.85468 129.494 4.17778C127.886 1.3629 124.191 0 118.393 0C104.019 0 92.1973 3.96844 82.8771 12.0033C73.5992 19.987 67.6826 30.7209 65.076 45.2808L62.85 57.2819L33.8433 58.2929C33.5561 58.2929 21.9276 59.1882 13.0571 59.8741C11.7037 59.9787 11.6324 61.9385 12.9747 62.1411L29.9077 64.7066C30.4731 64.7934 30.9361 65.2032 31.0875 65.7555L31.4592 67.1028C31.7175 68.0381 31.063 68.9779 30.0947 69.058L23.7618 69.5881C22.5731 69.6883 22.5219 71.4097 23.7017 71.5812L32.176 72.8038C32.5656 72.8595 32.8772 73.1512 32.9596 73.5365L33.2601 74.9439C33.4003 75.6009 32.9217 76.2289 32.2495 76.2667L0.905454 77.9993C-0.312156 78.0661 -0.296574 79.8677 0.921036 79.9145C17.4423 80.538 37.9368 81.3086 38.2084 81.3086H58.4203L53.1982 110.724H86.3185L91.5028 81.3086L91.5072 81.3063Z" fill="#FFE70D"/>
</svg>
