<?xml version="1.0" encoding="UTF-8"?>
<svg id="Layer_1" xmlns="http://www.w3.org/2000/svg" xmlns:xlink="http://www.w3.org/1999/xlink" version="1.1" viewBox="0 0 93 24.6">
  <!-- Generator: Adobe Illustrator 30.2.1, SVG Export Plug-In . SVG Version: 2.1.1 Build 1)  -->
  <defs>
    <style>
      .st0 {
        fill: none;
      }

      .st1 {
        fill: #fff;
      }

      .st2 {
        clip-path: url(#clippath);
      }
    </style>
    <clipPath id="clippath">
      <rect class="st0" width="93" height="24.7"/>
    </clipPath>
  </defs>
  <g class="st2">
    <path class="st1" d="M14.5,2.8l.3-1.7c0-.3,0-.5-.2-.7s-.4-.3-.7-.3H3.7c-.5,0-.8.3-.9.8L0,18.1c0,.3,0,.5.2.7s.4.3.7.3h2.4c.5,0,.8-.3.9-.8l1.1-6.7h5.9c.4,0,.8-.3.9-.8l.2-1.5c0-.3,0-.5-.2-.7s-.4-.3-.7-.3h-5.5l.7-4.8h7.1c.5,0,.8-.3.9-.8h-.1ZM68.2,8.5h0c-.6-.2-1.4-.3-2.2-.3-1.3,0-2.3.5-3,1.6-.6,1-1,2.2-1,3.5s0,1.5.4,2c.3.5.7.8,1.2.8s1.2-.4,2-1.1c.7-.7,1.4-1.6,2-2.5l.6-3.9h0ZM72.5,6.6l-1.9,11.8c0,.4-.5.8-.9.8h-1.4c-.2,0-.5,0-.7-.3-.2-.2-.3-.4-.3-.7v-1.5.2s-.6.6-1.3,1.1c-.9.7-1.9,1.1-2,1.1-.6.2-1.2.3-1.8.3-1.4,0-2.5-.5-3.2-1.5-.8-1-1.1-2.4-1.1-4s0-1.7.3-2.5c.2-.8.5-1.6.9-2.4.4-.8,1-1.5,1.6-2.1s1.4-1.1,2.4-1.5c1-.4,2.1-.6,3.4-.6s3.3.2,5.3.6c.5,0,.8.5.7,1h0s0,.2,0,.2ZM82.4,5.1c-.9.2-1.9.8-2.5,1.2-.7.5-1.7,1.6-1.7,1.6l-.2.2v-1.9c0-.2,0-.5-.2-.7s-.4-.3-.7-.3h-1.4c-.5,0-.8.3-.9.8l-1.9,12.1c0,.3,0,.5.2.7s.4.3.7.3h2.2c.5,0,.8-.3.9-.8l1-6.4c.6-.8,1.3-1.5,2.2-2.1.7-.4,1.4-.7,2.1-.8.4,0,.7-.4.8-.7l.4-2.2c0-.3,0-.6-.3-.8-.2-.2-.5-.3-.8-.2,0,0,0,0,.1,0ZM38.9,11.1c0-.8,0-1.5-.4-2-.3-.5-.7-.8-1.2-.8s-1.3.4-2,1.1c-.7.7-1.4,1.6-2,2.5l-.6,3.9h0c.6.2,1.4.3,2.2.3,1.3,0,2.3-.5,3-1.6.6-1,1-2.2,1-3.4h0ZM41.8,6.5c.8,1,1.1,2.4,1.1,4s0,2.1-.4,3.1c-.3,1-.8,2-1.4,2.9-.6.9-1.5,1.7-2.7,2.2-1.2.6-2.5.8-4.1.8s-1.4,0-2.3-.2h0l-.2,1.6h0l-.5,2.9c0,.4-.5.8-.9.8h-2.2c-.3,0-.5,0-.7-.3-.2-.2-.3-.5-.2-.7l2.8-17.6c0-.4.5-.8.9-.8h1.4c.2,0,.5,0,.7.3.2.2.3.4.3.7v1.5-.2s1.4-1.6,3.5-2.3c.6-.2,1.1-.3,1.6-.3,1.4,0,2.4.5,3.2,1.5h.1ZM92.1,5.2h-1.7l.4-2.4c0-.3,0-.5-.2-.7s-.4-.3-.7-.3h-1.7c-.4,0-.8.3-.9.7l-.8,2.8h-.9c-.5,0-.8.3-.9.8l-.2,1.3c0,.3,0,.5.2.7s.4.3.7.3h.6l-1,6.4v1.3c0,1.1.3,2,.9,2.5.6.6,1.6.8,2.8.8s1.8-.3,1.9-.4h.3c.3,0,.4-.4.5-.7l.2-1.3c0-.3,0-.6-.3-.8h-1.2s-.4,0-.6-.2c0,0-.3-.3-.3-1s0-.2,0-.4l.9-5.9h1.9c.4,0,.8-.3.9-.7l.3-1.3c0-.3,0-.5-.2-.7s-.4-.3-.7-.3h0l-.2-.3h0v-.2ZM57.6,5.6c-.2-.2-.4-.4-.7-.4h-2.3c-.4,0-.8.3-.9.6-.2.7-.6,1.4-1.1,2.3-.7,1.2-1.4,1.9-1.9,2.2h0c-.2,0-.5.3-1.5.4h0l1.6-9.7c0-.3,0-.5-.2-.7S50.2,0,49.9,0h-2.2C47.2,0,46.9.3,46.8.8l-2.8,17.3c0,.3,0,.5.2.7s.4.3.7.3h2.2c.5,0,.8-.3.9-.8l.7-4.5h1.4l1.9,4.7c0,.4.5.6.8.6h2.4c.5,0,.9-.4.9-.9s0-.2,0-.4l-2.1-5.5h0c.9-.8,1.8-2,2.7-3.4.6-.9,1-1.8,1.3-2.6v-.8h-.4ZM26.1,4c.9,0,1.6-.2,2-.7s.7-1,.7-1.8-.2-1-.5-1.3-.8-.4-1.5-.4-1.6.2-2,.7-.7,1.1-.7,1.8.2,1,.5,1.3.8.4,1.5.4h0ZM26.9,5.2h-2.1c-.5,0-.8.3-.9.8l-1.9,12.1c0,.3,0,.5.2.7s.4.3.7.3h2.1c.5,0,.8-.3.9-.8l1.9-12.1c0-.3,0-.5-.2-.7s-.4-.3-.7-.3ZM20.7.4c.2.2.3.5.2.7l-2.1,13.4v.5c0,.4,0,.8.3.9.2,0,.5.2.6.2.2,0,.4,0,.5.3.2.2.3.5.3.7v1.2c0,.3-.3.5-.4.6,0,0-.3.2-.6.3-.2,0-.9.3-1.3.3-1.1,0-2-.3-2.6-.8s-.9-1.3-.9-2.2v-.9c0-.3,2.3-14.6,2.3-14.7,0-.4.5-.8.9-.8h2.2c.3,0,.5,0,.7.3h-.1Z"/>
  </g>
</svg>