<?xml version="1.0" encoding="UTF-8"?>
<svg id="Layer_1" xmlns="http://www.w3.org/2000/svg" version="1.1" viewBox="0 0 32 32">
  <!-- Generator: Adobe Illustrator 30.2.1, SVG Export Plug-In . SVG Version: 2.1.1 Build 1)  -->
  <defs>
    <style>
      .st0 {
        fill: #fff;
      }
    </style>
  </defs>
  <path class="st0" d="M28,16c0,.6-.4,1-1,1H5c-.6,0-1-.4-1-1s.4-1,1-1h22c.6,0,1,.4,1,1ZM5,9h22c.6,0,1-.4,1-1s-.4-1-1-1H5c-.6,0-1,.4-1,1s.4,1,1,1ZM27,23H5c-.6,0-1,.4-1,1s.4,1,1,1h22c.6,0,1-.4,1-1s-.4-1-1-1Z"/>
</svg>