<svg width="500" height="75" viewBox="0 0 500 75" fill="none" xmlns="http://www.w3.org/2000/svg">
<g clip-path="url(#clip0_698_1664)">
<mask id="mask0_698_1664" style="mask-type:luminance" maskUnits="userSpaceOnUse" x="0" y="0" width="500" height="75">
<path d="M500 0H0V74.3073H500V0Z" fill="white"/>
</mask>
<g mask="url(#mask0_698_1664)">
<path d="M86.9091 73.0806H64.8699L72.0552 42.578L75.735 30.8851L68.2678 42.578L54.9314 59.4536H39.7014L35.9677 42.578L34.9739 31.1885L32.3012 42.578L22.309 73.0806H0.0683594L23.652 1.2168H49.2504L53.9644 27.649L54.4211 34.1592L58.5039 27.5479L77.9779 1.2168H103.576L86.9091 73.0932V73.0806Z" fill="#940040"/>
<path d="M121.254 73.0806H98.3545L118.473 1.2168H141.372L121.254 73.0932V73.0806Z" fill="#940040"/>
<path d="M202.034 73.0806H178.383L167.666 44.3098L165.355 34.0454L163.555 44.3098L155.484 73.0806H133.995L154.114 1.2168H177.335L188.147 31.1L190.457 42.3884L193.439 27.2445L200.771 1.2168H222.153L202.034 73.0932V73.0806Z" fill="#940040"/>
<path d="M265.829 42.4769L277.459 1.2168H300.358L288.673 42.9952C285.691 53.563 280.951 61.4257 274.424 66.5831C267.91 71.7281 258.669 74.3069 246.717 74.3069C236.63 74.3069 229.553 72.4612 225.47 68.7701C221.388 65.0789 219.749 59.5421 220.582 52.1472C220.877 49.5053 221.508 46.4588 222.462 42.9952L234.146 1.2168H256.937L245.414 42.4895C244.81 44.6637 244.421 46.4841 244.259 47.9756C243.964 50.6176 244.367 52.615 245.481 53.9675C246.582 55.3201 248.691 56.0026 251.794 56.0026C255.823 56.0026 258.871 54.865 260.926 52.6023C262.981 50.3269 264.62 46.9644 265.841 42.4895L265.829 42.4769Z" fill="#940040"/>
<path d="M332.286 73.0811H309.387L324.335 19.5087H303.491L308.662 1.20459H373.248L368.078 19.5087H347.234L332.286 73.0811Z" fill="#940040"/>
<path d="M425.255 70.5403L431.687 50.6182C433.421 51.8443 436.63 52.9189 441.317 53.8669C446.005 54.815 450.719 55.2953 455.472 55.2953C462.967 55.2953 466.849 54.006 467.13 51.4272C467.264 50.2137 466.204 49.1898 463.961 48.3807C461.704 47.5717 458.951 46.788 455.688 46.0422C452.425 45.2964 449.188 44.2977 445.977 43.0463C442.768 41.7947 440.148 39.7596 438.121 36.9533C436.093 34.1471 435.314 30.6707 435.77 26.5371C436.71 18.0677 440.74 11.5323 447.845 6.91838C454.949 2.31708 464.404 0.00378418 476.21 0.00378418C480.104 0.00378418 483.959 0.281885 487.786 0.812805C491.614 1.35636 494.502 1.89992 496.463 2.44349C498.423 2.98704 499.592 3.39155 499.995 3.65702L493.777 22.5679C492.218 21.6198 489.439 20.735 485.436 19.926C481.42 19.1169 477.216 18.6997 472.825 18.6997C464.404 18.6997 460.04 20.0524 459.731 22.7701C459.597 23.9205 460.671 24.8686 462.927 25.6144C465.183 26.3602 467.923 27.144 471.146 27.953C474.37 28.762 477.579 29.8364 480.776 31.1511C483.973 32.4784 486.591 34.5769 488.606 37.4589C490.62 40.3411 491.399 43.8805 490.929 48.0773C489.962 56.7491 486.08 63.297 479.285 67.6962C472.489 72.1078 462.981 74.3073 450.732 74.3073C446.125 74.3073 441.693 74.0039 437.436 73.3972C433.178 72.7904 430.09 72.1458 428.142 71.4632L425.215 70.5529L425.255 70.5403Z" fill="#940040"/>
<path d="M427.007 19.3691H381.396L386.339 1.2168H431.962L427.007 19.3691Z" fill="#940040"/>
<path d="M419.201 46.2192H353.299L358.254 28.0667H424.144L419.201 46.2192Z" fill="#940040"/>
<path d="M411.384 73.0811H380.938L385.88 54.9287H416.341L411.384 73.0811Z" fill="#940040"/>
<path d="M376.488 73.0811H368.31L373.251 54.9287H381.444L376.488 73.0811Z" fill="#940040"/>
</g>
</g>
<defs>
<clipPath id="clip0_698_1664">
<rect width="500" height="74.3073" fill="white"/>
</clipPath>
</defs>
</svg>
