<svg width="500" height="139" viewBox="0 0 500 139" fill="none" xmlns="http://www.w3.org/2000/svg">
<path d="M464.034 53.4201C472.846 50.4459 482.65 48.5181 491.793 51.4373C497.026 53.1998 499.835 58.7627 499.78 64.0502C499.89 74.9006 500 85.751 499.614 96.6014C496.475 96.6014 493.335 96.6014 490.251 96.5463C489.865 94.8389 489.535 93.1315 489.149 91.4241C483.311 96.0506 475.545 99.3553 468.054 96.6014C459.572 93.2416 458.526 80.5186 464.915 74.6252C471.359 68.6768 480.612 68.6217 488.709 66.8041C488.213 64.0502 487.772 60.5252 484.523 59.7541C478.024 57.8263 471.469 60.7455 465.245 62.508C464.75 59.5338 464.364 56.5045 464.034 53.4201ZM474.388 78.5908C471.359 81.0143 471.194 86.9076 475.16 88.4498C479.951 90.2674 484.578 87.0178 488.323 84.4291C488.323 80.9041 488.323 77.3791 488.268 73.8541C483.531 74.6803 478.189 75.2311 474.388 78.5908ZM219.707 31.7193C224.939 31.3888 230.227 31.3888 235.514 31.499C241.738 47.3064 245.759 63.9951 252.478 79.6373C258.041 63.6646 263.164 47.5818 268.616 31.6091C273.849 31.4439 279.081 31.4439 284.314 31.6091C285.856 53.3099 288.059 75.0107 288.995 96.7116H276.878C275.446 81.2346 274.785 65.6474 273.243 50.1705C267.019 65.3721 262.613 81.3447 256.94 96.7666C253.139 96.9319 249.339 96.8768 245.539 96.7116C240.086 81.2897 235.68 65.4271 229.18 50.3908C227.858 65.8127 227.253 81.3447 225.821 96.7666C222.185 96.7666 218.55 96.7666 214.915 96.7116C215.962 74.9557 218.22 53.365 219.707 31.7193ZM399.647 36.6212C403.282 35.8501 407.028 35.3544 410.718 35.024C410.828 40.2564 410.828 45.4888 410.828 50.7763C413.858 50.8314 416.942 50.9966 420.026 51.0517C420.632 54.0259 421.128 57.0552 421.568 60.0845C417.988 60.2498 414.463 60.415 410.938 60.4701C410.993 68.4014 410.388 76.3877 411.214 84.319C412.37 88.1744 417.383 87.0729 420.412 87.7889C421.018 90.8182 421.458 93.9026 421.789 96.9869C416.006 97.5928 409.506 98.3639 404.329 95.0592C400.914 92.801 399.868 88.56 399.702 84.7596C399.262 76.7182 399.813 68.6767 399.482 60.6353C397.389 60.415 395.241 60.1947 393.148 59.9744C393.203 57.0552 393.313 54.1912 393.423 51.272C395.461 51.1068 397.499 50.8865 399.592 50.7212C399.482 45.9845 399.537 41.3029 399.647 36.6212ZM295.88 51.988C299.791 51.217 303.756 50.7763 307.722 50.556C311.302 61.0209 314.441 71.651 318.132 82.0608C321.877 71.9264 324.796 61.4615 328.101 51.1619C331.901 50.9416 335.646 50.8314 339.447 50.8865C335.206 64.7662 329.698 78.2053 325.016 91.9748C322.538 98.3088 320.996 105.469 315.818 110.261C311.577 114.116 305.464 114.281 300.121 113.345C299.625 110.316 299.13 107.287 298.634 104.312C301.278 104.257 303.921 104.422 306.51 103.982C310.035 102.77 313.119 98.5291 311.522 94.7838C306.4 80.4635 300.782 66.3635 295.88 51.988ZM346.827 50.9416C350.022 50.9416 353.216 50.9966 356.356 51.0517C356.796 53.0345 357.182 55.0174 357.623 57.0002C362.525 52.9795 368.363 49.0689 375.082 50.1705C380.921 50.3908 385.547 55.6783 385.657 61.3513C385.933 73.083 385.768 84.8697 385.713 96.6014C382.077 96.6565 378.442 96.7116 374.862 96.7666C373.816 86.0815 375.082 75.3412 374.311 64.7111C373.816 60.3049 368.363 59.2033 364.948 60.9658C362.029 62.3978 358.118 64.4357 358.339 68.2361C358.118 77.7096 358.449 87.183 358.284 96.6565C354.428 96.7116 350.628 96.7116 346.772 96.6014C346.827 81.3447 346.772 66.1431 346.827 50.9416ZM430.326 50.9416C433.576 50.9416 436.825 50.9416 440.075 50.9966C440.46 53.6404 440.901 56.2841 441.342 58.983C445.362 54.797 449.769 50.4459 455.937 49.9502C456.929 53.5853 457.479 57.3306 457.59 61.076C451.531 62.4529 444.646 64.9865 441.947 70.99C441.397 79.5272 442.058 88.1194 441.727 96.6565C437.927 96.7116 434.126 96.7116 430.326 96.6014V50.9416Z" fill="#231F20"/>
<path d="M42.1902 13.8739C46.0457 9.24736 50.2316 4.29032 56.1801 2.41766C62.8445 0.655156 68.5176 5.88759 72.7035 10.3489C83.6641 22.9068 91.6504 37.7228 99.086 52.5939C103.107 43.5611 108.119 34.9689 113.296 26.597C118.253 18.9962 123.375 11.2853 130.536 5.50204C133.84 2.96844 138.412 0.545 142.543 2.69305C148.381 5.77743 152.787 10.8997 156.918 15.9118C165.676 27.2029 172.56 39.8158 178.784 52.649C186.55 69.1725 193.27 86.4119 196.079 104.533C196.905 112.905 197.676 122.323 192.609 129.648C188.698 135.376 181.263 137.359 174.653 136.203C168.925 134.165 163.913 130.419 160.168 125.683C151.245 114.667 145.958 101.338 141.056 88.1744C140.34 85.8612 139.458 83.603 138.687 81.3447C138.192 83.658 137.531 85.9713 136.759 88.2295C131.747 101.558 126.405 115.163 117.207 126.233C113.516 130.75 108.67 134.22 103.162 136.203C95.2305 137.855 87.5747 133.724 82.4524 127.886C72.4281 116.98 66.8653 102.88 61.743 89.1658C60.7516 86.3569 59.7602 83.5479 59.0441 80.6287C58.218 83.5479 57.2266 86.467 56.1801 89.276C51.5535 101.889 46.266 114.612 37.8941 125.242C33.3226 130.695 27.3742 136.037 19.9386 136.423C13.0538 137.029 6.38938 132.567 3.74562 126.289C0.000305959 117.586 1.10187 107.782 2.75422 98.6944C6.3343 81.3447 12.9437 64.7662 20.7648 48.9588C26.7683 36.6763 33.598 24.6693 42.1902 13.8739ZM46.1008 17.7294C37.6187 28.5247 30.8441 40.6419 24.7855 52.9244C17.2398 68.842 10.4101 85.4205 7.49094 102.88C6.44446 107.727 6.44446 112.739 6.94016 117.641C7.54602 122.268 9.3636 127.225 13.6046 129.593C17.6804 131.962 22.9128 131.025 26.6031 128.382C33.2125 123.755 37.6187 116.705 41.4191 109.71C49.5707 94.1229 54.9133 77.2139 58.934 60.1947C63.2301 77.6545 68.6277 95.0592 77.2199 110.977C80.6348 116.87 84.2149 122.984 89.7778 127.06C92.5868 129.593 96.277 131.356 100.132 130.915C104.429 130.475 108.009 127.721 111.038 124.801C116.16 119.514 119.906 113.015 123.21 106.515C130.26 92.085 135.107 76.6631 138.908 61.131C143.644 79.9678 149.538 98.8596 159.672 115.603C163.472 121.442 167.934 127.5 174.598 130.254C179.28 132.182 185.228 130.475 187.927 126.123C191.177 120.891 191.452 114.392 190.956 108.443C190.296 98.8045 187.487 89.4412 184.402 80.2983C178.233 62.6732 170.137 45.7091 160.278 29.9017C155.706 22.8517 150.97 15.7466 144.581 10.1286C142.322 8.14579 138.963 6.21806 136.099 8.20087C130.591 11.5606 126.79 16.9032 122.935 21.9704C113.572 35.2994 105.861 49.84 99.5266 64.8213C99.3614 65.0416 98.9208 65.4822 98.7555 65.7025C98.2047 63.9951 97.654 62.3428 96.9379 60.6904C90.4387 46.6455 83.2235 32.8208 74.0254 20.3732C70.886 16.2423 67.6363 12.0563 63.3953 9.02704C61.5777 7.76025 59.1543 6.6036 57.0063 7.70517C52.4348 9.79814 49.2402 13.929 46.1008 17.7294Z" fill="#FEFEFE"/>
<path d="M46.1006 17.7294C49.2401 13.929 52.4897 9.85323 57.0612 7.76025C59.2093 6.65869 61.6327 7.76025 63.4503 9.08213C67.6913 12.1114 70.9409 16.3525 74.0804 20.4282C83.2234 32.931 90.4937 46.7005 96.9929 60.7455C97.764 62.3428 98.3148 64.0502 98.8105 65.7576C90.3284 51.3822 82.6175 36.456 72.0425 23.4575C68.9581 19.8224 65.7085 15.9669 61.2472 14.0392C58.7136 12.9376 56.1249 14.3696 54.0319 15.7466C46.4311 22.1357 40.8131 30.4525 35.5256 38.7142C23.078 58.5424 13.7147 80.2983 7.5459 102.88C10.465 85.4205 17.2397 68.842 24.8405 52.9244C30.844 40.6419 37.6186 28.5247 46.1006 17.7294ZM136.098 8.1458C138.963 6.16299 142.322 8.09072 144.58 10.0735C150.97 15.6364 155.706 22.7415 160.278 29.8466C170.137 45.7091 178.288 62.6182 184.402 80.2432C187.486 89.3862 190.295 98.6944 190.956 108.388C189.91 101.669 188.147 95.0592 185.889 88.6701C180.051 71.1002 171.954 54.2463 162.15 38.549C157.854 31.8294 153.283 25.165 147.775 19.4368C145.572 17.2337 143.204 14.9204 140.174 13.929C137.806 13.213 135.658 14.8653 133.73 16.022C128.608 20.0427 124.642 25.22 120.842 30.4525C114.122 39.981 108.119 50.0052 102.721 60.3049C101.84 61.9572 100.738 63.4994 99.5265 64.8764C105.861 49.84 113.571 35.3544 122.935 22.0255C126.79 16.9032 130.646 11.5056 136.098 8.1458Z" fill="#9E242E"/>
<path d="M54.0318 15.7466C56.1247 14.3696 58.7134 12.9376 61.247 14.0392C65.7083 15.9669 68.958 19.8224 72.0423 23.4575C82.6174 36.456 90.3283 51.3822 98.7553 65.7576C93.4678 80.794 87.1888 95.8854 86.8033 112.023C86.5279 117.201 87.9049 122.268 89.8326 127.06C84.2697 122.984 80.6345 116.87 77.2748 110.977C68.7376 95.0592 63.2849 77.7096 58.9888 60.1947C55.9044 45.6541 53.0404 30.783 54.0318 15.7466Z" fill="#FF912E"/>
<path d="M133.785 15.9669C135.712 14.8103 137.86 13.1579 140.229 13.8739C143.258 14.8653 145.626 17.1786 147.829 19.3818C153.337 25.165 157.909 31.7744 162.205 38.4939C172.009 54.1912 180.105 71.0451 185.944 88.6151C188.257 95.0041 189.964 101.614 191.011 108.333C191.507 114.282 191.231 120.781 187.982 126.013C185.283 130.419 179.389 132.072 174.653 130.144C167.988 127.445 163.527 121.332 159.726 115.493C149.592 98.8045 143.699 79.9127 138.962 61.0209C135.767 46.315 132.793 31.2236 133.785 15.9669ZM35.525 38.7142C40.8125 30.4525 46.4305 22.1357 54.0313 15.7466C53.0399 30.7279 55.9039 45.6541 59.0434 60.1947C55.0227 77.269 49.625 94.1229 41.5285 109.71C37.7281 116.705 33.3219 123.755 26.7125 128.382C23.0223 131.025 17.7898 131.962 13.714 129.593C9.47301 127.225 7.65543 122.213 7.04957 117.641C6.49879 112.739 6.55387 107.727 7.60035 102.88C13.659 80.2983 23.0773 58.5424 35.525 38.7142Z" fill="#F41CB2"/>
<path d="M120.897 30.3974C124.697 25.165 128.663 19.9876 133.785 15.9669C132.794 31.1685 135.768 46.315 139.017 61.076C135.217 76.6631 130.315 92.0299 123.32 106.46C120.015 113.015 116.27 119.459 111.148 124.746C108.174 127.666 104.538 130.419 100.242 130.86C96.3869 131.301 92.6966 129.538 89.8876 127.005C87.9599 122.213 86.5829 117.146 86.8583 111.968C87.2439 95.8303 93.5228 80.6838 98.8103 65.7025C98.9755 65.4822 99.4162 65.0416 99.5814 64.8213C100.793 63.3892 101.895 61.9021 102.776 60.2498C108.229 49.9502 114.177 39.9259 120.897 30.3974Z" fill="#F25511"/>
</svg>
