<svg width="500" height="155" viewBox="0 0 500 155" fill="none" xmlns="http://www.w3.org/2000/svg">
<mask id="mask0_698_1657" style="mask-type:luminance" maskUnits="userSpaceOnUse" x="0" y="0" width="500" height="155">
<path d="M0 0.385864H500V154.1H0V0.385864Z" fill="white"/>
</mask>
<g mask="url(#mask0_698_1657)">
<path d="M71.0429 87.4787C71.0429 103.65 58.3571 115.657 36.4714 115.657C17.7643 115.657 3.96429 107.657 0 104.129L6.64286 84.9144C13.4571 91.3216 25.0357 95.9644 34.55 96.1287C43.9071 96.2859 50.7214 94.2002 50.7214 89.243C50.7214 85.7144 47.2357 84.4359 36.7643 82.693C7.45714 77.8716 2.51429 68.4287 2.51429 55.4573C2.51429 42.6501 16.3143 31.1287 36.9286 31.1287C47.5881 31.2646 58.0678 33.8943 67.5286 38.8073L61.8429 57.3716C57.8786 54.4859 47.4143 50.8216 36.95 50.643C28.6929 50.4859 22.8357 52.0859 22.8357 55.443C22.8357 60.2501 31.0929 61.0502 39.4857 62.4859C66.1286 66.8216 71.0429 77.3859 71.0429 87.4787ZM154.3 66.9859V113.1H134V69.5502C134 57.2216 129.243 51.6216 118.779 51.6216C109.579 51.6216 101.021 57.7002 101.021 72.1144V113.1H80.7143V0.385864H101V41.3716C106.4 34.9716 112.893 31.1287 124.786 31.1287C142.879 31.1287 154.3 42.9716 154.3 66.9859ZM246.429 73.393C246.433 81.7436 243.981 89.911 239.379 96.8787C234.795 103.816 228.254 109.236 220.586 112.45C212.94 115.651 204.512 116.489 196.386 114.857C188.249 113.216 180.786 109.188 174.95 103.286C169.083 97.3561 165.095 89.8278 163.486 81.643C161.871 73.4423 162.7 64.9477 165.871 57.2144C169.029 49.5063 174.397 42.9052 181.3 38.243C189.341 32.8111 199.029 30.3618 208.686 31.3193C218.342 32.2767 227.36 36.5806 234.179 43.4859C238.071 47.4144 241.157 52.0716 243.257 57.2073C245.362 62.3437 246.434 67.8421 246.429 73.393ZM226.136 73.393C226.135 69.0896 224.868 64.8815 222.493 61.293C220.133 57.7231 216.767 54.9339 212.821 53.2787C208.881 51.625 204.535 51.1902 200.345 52.0305C196.155 52.8708 192.313 54.9477 189.314 57.993C186.299 61.0568 184.248 64.9379 183.416 69.1556C182.585 73.3734 183.009 77.7424 184.636 81.7216C186.26 85.6937 189.024 89.0962 192.579 91.5002C196.722 94.2951 201.713 95.5536 206.686 95.058C211.66 94.5623 216.304 92.3436 219.814 88.7859C223.865 84.6865 226.136 79.1558 226.136 73.393ZM338.571 73.393C338.571 96.7644 320.964 115.664 299.243 115.664C289.721 115.664 281.479 111.986 275.136 104.622V154.093H254.836V33.6859H275.136V42.1716C281.479 34.8073 289.721 31.1287 299.243 31.1287C320.993 31.1287 338.571 50.0144 338.571 73.393ZM318.271 73.393C318.271 69.0896 317.004 64.8815 314.629 61.293C312.27 57.7205 308.904 54.9287 304.957 53.2716C301.016 51.6187 296.67 51.1851 292.479 52.0267C288.289 52.8683 284.447 54.9465 281.45 57.993C278.434 61.0568 276.384 64.9379 275.552 69.1556C274.72 73.3734 275.144 77.7424 276.771 81.7216C278.398 85.6947 281.164 89.0973 284.721 91.5002C288.864 94.2946 293.853 95.5528 298.826 95.0572C303.798 94.5615 308.441 92.3431 311.95 88.7859C316 84.6865 318.272 79.1558 318.271 73.393ZM415.479 87.4859C415.479 103.657 402.793 115.657 380.907 115.657C362.193 115.657 348.407 107.657 344.436 104.129L351.079 84.9216C357.893 91.3216 369.464 95.9644 378.979 96.1287C388.336 96.293 395.157 94.2002 395.157 89.243C395.157 85.7216 391.664 84.443 381.2 82.693C351.864 77.893 346.95 68.4501 346.95 55.4787C346.95 42.6716 360.743 31.1502 381.357 31.1502C392.019 31.286 402.501 33.9156 411.964 38.8287L406.279 57.3716C402.314 54.4859 391.85 50.8216 381.379 50.6502C373.121 50.4859 367.264 52.093 367.264 55.4502C367.264 60.2502 375.521 61.0502 383.921 62.493C410.564 66.8287 415.479 77.393 415.479 87.4859ZM500 33.693L449.279 154.086H426.443L446.743 107.336L416.3 33.693H439.129L458.157 80.4359L477.186 33.693H500Z" fill="#503CEB"/>
</g>
</svg>
