<svg width="500" height="174" viewBox="0 0 500 174" fill="none" xmlns="http://www.w3.org/2000/svg">
<g clip-path="url(#clip0_698_1614)">
<mask id="mask0_698_1614" style="mask-type:luminance" maskUnits="userSpaceOnUse" x="0" y="0" width="500" height="174">
<path d="M500 0H0V173.913H500V0Z" fill="white"/>
</mask>
<g mask="url(#mask0_698_1614)">
<path fill-rule="evenodd" clip-rule="evenodd" d="M39.589 2.60265C24.0098 2.90322 11.4746 15.4165 11.4746 30.809C11.4746 46.2015 24.0098 58.7149 39.589 59.0152V59.021H40.1625H45.3266L77.7665 27.1194C79.1107 25.7973 81.2904 25.7973 82.635 27.1194L108.601 52.654C109.945 53.9757 109.945 56.1192 108.601 57.4417L106.994 59.021H131.391V2.59711H40.177H40.1625H40.1484H39.589V2.60265ZM39.5886 64.6634L38.0067 66.2189C36.6625 67.5413 36.6625 69.6848 38.0067 71.0065L63.9723 96.5413C65.3169 97.8631 67.4966 97.8631 68.8408 96.5413L101.257 64.6634H106.134H106.145C121.989 64.6634 134.833 77.2942 134.833 92.8754C134.833 108.456 121.989 121.087 106.145 121.087H14.3435V64.6634H39.5886Z" fill="white"/>
<path fill-rule="evenodd" clip-rule="evenodd" d="M39.589 2.60265C24.0098 2.90322 11.4746 15.4165 11.4746 30.809C11.4746 46.2015 24.0098 58.7149 39.589 59.0152V59.021H40.1625H45.3266L77.7665 27.1194C79.1107 25.7973 81.2904 25.7973 82.635 27.1194L108.601 52.654C109.945 53.9757 109.945 56.1192 108.601 57.4417L106.994 59.021H131.391V2.59711H40.177H40.1625H40.1484H39.589V2.60265ZM39.5886 64.6634L38.0067 66.2189C36.6625 67.5413 36.6625 69.6848 38.0067 71.0065L63.9723 96.5413C65.3169 97.8631 67.4966 97.8631 68.8408 96.5413L101.257 64.6634H106.134H106.145C121.989 64.6634 134.833 77.2942 134.833 92.8754C134.833 108.456 121.989 121.087 106.145 121.087H14.3435V64.6634H39.5886Z" fill="#4D43FE"/>
<path d="M224.159 71.9791C230.308 71.9791 235.295 73.836 239.122 77.5505C243.074 81.265 245.051 86.4407 245.051 93.0777V123.128H231.781V95.4523C231.781 91.7382 230.841 88.8762 228.959 86.8668C227.139 84.8574 224.662 83.8527 221.525 83.8527C218.137 83.8527 215.408 84.9487 213.338 87.1407C211.267 89.2719 210.232 92.1643 210.232 95.8179V123.128H196.963V95.544C196.963 91.8904 196.022 89.0284 194.139 86.9581C192.321 84.8878 189.812 83.8527 186.611 83.8527C183.349 83.8527 180.651 84.9487 178.519 87.1407C176.449 89.3331 175.414 92.2556 175.414 95.9092V123.128H162.145V73.3491H175.13V80.4733C176.574 77.8548 178.707 75.7846 181.53 74.2625C184.353 72.6791 187.428 71.9183 190.752 71.9791C194.014 71.9791 196.994 72.74 199.692 74.2625C202.452 75.7846 204.491 77.9465 205.809 80.7472C207.691 78.007 210.263 75.8759 213.525 74.3538C216.789 72.7704 220.332 71.9791 224.159 71.9791Z" fill="#242B3D"/>
<path d="M251.822 98.196C251.822 90.8282 254.394 84.6478 259.539 79.6547C264.746 74.5398 271.333 71.9826 279.3 71.9826C287.268 71.9826 293.855 74.5398 299.062 79.6547C304.207 84.6478 306.78 90.8282 306.78 98.196C306.78 105.624 304.207 111.835 299.062 116.829C293.855 121.882 287.268 124.41 279.3 124.41C271.333 124.41 264.746 121.882 259.539 116.829C254.394 111.835 251.822 105.624 251.822 98.196ZM269.138 108.334C271.835 111.074 275.223 112.445 279.3 112.445C283.252 112.445 286.61 111.074 289.369 108.334C292.13 105.473 293.51 102.093 293.51 98.196C293.51 94.2989 292.13 90.95 289.369 88.1492C286.61 85.409 283.252 84.0391 279.3 84.0391C275.223 84.0391 271.835 85.409 269.138 88.1492C266.439 90.8282 265.09 94.1771 265.09 98.196C265.09 102.154 266.439 105.533 269.138 108.334Z" fill="#242B3D"/>
<path d="M327.509 123.131H314.241V73.3525H327.227V80.2942C328.608 77.7978 330.741 75.7884 333.627 74.2659C336.512 72.7438 339.744 71.9826 343.319 71.9826C348.903 71.9826 353.639 73.7789 357.529 77.3713C361.419 80.9641 363.364 86.0786 363.364 92.7159V123.131H350.094V96.1866C350.094 92.2895 349.122 89.2757 347.178 87.1445C345.233 84.9525 342.598 83.8561 339.273 83.8561C335.759 83.8561 332.905 85.0434 330.71 87.4184C328.576 89.7322 327.509 92.7463 327.509 96.4608V123.131Z" fill="#242B3D"/>
<path d="M422.612 97.1007C422.612 98.6231 422.456 100.51 422.141 102.763H383.652C385.536 109.827 390.521 113.359 398.616 113.359C404.576 113.359 410.097 111.684 415.177 108.335L420.445 117.377C413.924 121.945 406.456 124.227 398.05 124.227C389.079 124.227 382.177 121.701 377.347 116.646C372.579 111.654 370.195 105.504 370.195 98.1967C370.195 90.5855 372.674 84.3442 377.63 79.4728C382.587 74.5405 389.018 72.0746 396.92 72.0746C404.387 72.0746 410.536 74.3275 415.366 78.8333C420.195 83.3394 422.612 89.4286 422.612 97.1007ZM396.92 82.7608C393.597 82.7608 390.742 83.7047 388.358 85.5923C386.036 87.4192 384.467 89.946 383.652 93.1735H409.721C409.09 89.946 407.648 87.4192 405.391 85.5923C403.13 83.7047 400.308 82.7608 396.92 82.7608Z" fill="#242B3D"/>
<path d="M450.53 105.773L462.196 73.3481H476.689L456.08 125.593C453.573 131.987 450.562 136.706 447.048 139.75C443.595 142.795 439.363 144.316 434.341 144.316C430.454 144.316 427.16 143.495 424.461 141.85L426.722 131.072C429.04 132.169 431.236 132.717 433.309 132.717C437.385 132.717 440.711 130.098 443.283 124.862L444.319 122.579L421.921 73.3481H437.261L450.53 105.773Z" fill="#242B3D"/>
<path d="M183.601 54.4656C174.573 54.4656 167.421 51.1649 162.145 44.5631L169.296 36.1697C171.139 38.3703 173.333 40.1308 175.876 41.4511C178.483 42.7084 181.089 43.3373 183.696 43.3373C185.73 43.3373 187.415 42.8656 188.749 41.9225C190.149 40.9794 190.847 39.7848 190.847 38.3388C190.847 36.5156 189.609 35.038 187.128 33.9063C186.366 33.5919 184.3 32.806 180.93 31.5487C177.943 30.4798 175.717 29.5681 174.255 28.8137C168.279 25.9844 165.291 21.5519 165.291 15.5161C165.291 11.0522 167.071 7.34274 170.631 4.38778C174.129 1.49563 178.832 0.0495605 184.745 0.0495605C192.119 0.0495605 198.191 2.50156 202.958 7.40557L196.284 15.9876C192.66 12.5925 188.687 10.8951 184.364 10.8951C182.646 10.8951 181.216 11.3352 180.072 12.2154C178.991 13.0327 178.451 14.0386 178.451 15.2332C178.451 17.3709 179.977 18.9427 183.029 19.9487C189.83 22.4635 193.994 24.1297 195.521 24.9471C201.37 27.9648 204.293 32.3031 204.293 37.9616C204.293 42.8029 202.387 46.7638 198.572 49.8446C194.885 52.9254 189.894 54.4656 183.601 54.4656Z" fill="#242B3D"/>
<path d="M252.269 48.3363C248.072 52.3602 242.255 54.3721 234.817 54.3721C227.379 54.3721 221.53 52.3602 217.271 48.3363C213.075 44.2497 210.977 38.6225 210.977 31.4552V1.74792H224.423V31.4552C224.423 34.7245 225.344 37.3337 227.188 39.2826C229.032 41.2319 231.575 42.2062 234.817 42.2062C238.06 42.2062 240.603 41.2319 242.445 39.2826C244.289 37.3337 245.211 34.7245 245.211 31.4552V1.74792H258.657V31.4552C258.657 38.6855 256.528 44.3127 252.269 48.3363Z" fill="#242B3D"/>
<path fill-rule="evenodd" clip-rule="evenodd" d="M316.471 8.25229C311.576 3.03379 305.473 0.424606 298.162 0.424606C291.614 0.424606 286.114 2.97096 281.664 8.06356V1.7449H268.314V72.3891L281.76 59.0837V47.2015C286.21 51.9801 291.645 54.3692 298.066 54.3692C305.378 54.3692 311.48 51.7602 316.376 46.5413C321.271 41.3232 323.719 34.9416 323.719 27.3969C323.719 19.7893 321.302 13.4077 316.471 8.25229ZM306.172 37.9594C303.502 40.7888 300.038 42.2033 295.778 42.2033C291.582 42.2033 288.149 40.7888 285.479 37.9594C282.809 35.1302 281.474 31.6407 281.474 27.4912C281.474 23.3416 282.809 19.8521 285.479 17.0229C288.149 14.1936 291.582 12.7791 295.778 12.7791C300.038 12.7791 303.502 14.1936 306.172 17.0229C308.842 19.8521 310.178 23.3416 310.178 27.4912C310.178 31.6407 308.842 35.1302 306.172 37.9594Z" fill="#242B3D"/>
<path fill-rule="evenodd" clip-rule="evenodd" d="M381.763 26.2652C381.763 27.837 381.604 29.7861 381.285 32.1123H342.282C344.19 39.4054 349.243 43.0522 357.444 43.0522C363.484 43.0522 369.078 41.3232 374.227 37.8652L379.568 47.2015C372.955 51.917 365.39 54.2747 356.872 54.2747C347.781 54.2747 340.788 51.6656 335.892 46.4471C331.061 41.2917 328.646 34.9416 328.646 27.3969C328.646 19.5378 331.156 13.0935 336.179 8.06356C341.201 2.97096 347.717 0.424606 355.728 0.424606C363.292 0.424606 369.524 2.75096 374.419 7.40342C379.314 12.056 381.763 18.3433 381.763 26.2652ZM355.728 11.4587C352.358 11.4587 349.466 12.4332 347.05 14.3822C344.698 16.2685 343.109 18.8777 342.282 22.2099H368.698C368.06 18.8777 366.6 16.2685 364.31 14.3822C362.021 12.4332 359.161 11.4587 355.728 11.4587Z" fill="#242B3D"/>
<path d="M389.104 53.1453H402.549V28.7194C402.549 23.5639 403.662 19.6972 405.886 17.1194C408.172 14.4789 411.288 13.1585 415.23 13.1585C417.075 13.1585 419.14 13.5043 421.43 14.1959L422.575 1.46431C420.477 0.709803 418.379 0.332611 416.281 0.332611C409.857 0.332611 405.089 3.09898 401.977 8.63172V1.74714H389.104V53.1453Z" fill="#242B3D"/>
<path d="M426.286 53.3308C433.17 53.3308 438.75 47.8432 438.75 41.0732C438.75 34.3036 433.17 28.8157 426.286 28.8157C419.402 28.8157 413.822 34.3036 413.822 41.0732C413.822 47.8432 419.402 53.3308 426.286 53.3308Z" fill="#4D43FE"/>
<path d="M171.498 168.837C170.208 168.837 169.054 168.558 168.037 167.996C167.045 167.435 166.313 166.617 165.842 165.545L165.559 167.375C165.465 167.985 164.933 168.435 164.305 168.435H161.375C160.596 168.435 160 167.749 160.123 166.992L163.887 143.693C163.984 143.088 164.516 142.642 165.139 142.642H168.192C168.971 142.642 169.565 143.325 169.445 144.082L168.037 152.922C168.732 152.02 169.575 151.325 170.567 150.837C171.559 150.35 172.663 150.105 173.878 150.105C175.937 150.105 177.587 150.8 178.827 152.19C180.067 153.581 180.687 155.472 180.687 157.861C180.687 159.934 180.315 161.801 179.571 163.459C178.827 165.118 177.76 166.435 176.37 167.41C175.006 168.362 173.382 168.837 171.498 168.837ZM170.344 164.703C171.832 164.703 172.986 164.081 173.804 162.837C174.622 161.594 175.032 160.032 175.032 158.155C175.032 156.886 174.722 155.922 174.102 155.263C173.506 154.581 172.675 154.24 171.609 154.24C170.121 154.24 168.967 154.862 168.149 156.105C167.33 157.349 166.921 158.898 166.921 160.751C166.921 162.02 167.219 162.996 167.814 163.678C168.434 164.362 169.277 164.703 170.344 164.703Z" fill="#242B3D"/>
<path d="M184.771 175.018C183.778 175.018 183.169 173.945 183.691 173.115L187.257 167.445L182.904 152.049C182.68 151.254 183.288 150.469 184.127 150.469H187.107C187.696 150.469 188.208 150.866 188.342 151.43L190.829 161.883L197.049 151.099C197.275 150.709 197.696 150.469 198.153 150.469H200.976C201.962 150.469 202.571 151.526 202.064 152.357L188.594 174.412C188.365 174.788 187.951 175.018 187.507 175.018H184.771Z" fill="#242B3D"/>
<mask id="mask1_698_1614" style="mask-type:luminance" maskUnits="userSpaceOnUse" x="207" y="142" width="128" height="35">
<path d="M334.215 142.238H207.382V176.33H334.215V142.238Z" fill="white"/>
</mask>
<g mask="url(#mask1_698_1614)">
<path fill-rule="evenodd" clip-rule="evenodd" d="M212.941 144.335C213 143.747 213.54 143.22 214.154 143.241C218.748 143.241 223.319 143.259 227.89 143.241C228.386 143.201 228.926 143.416 229.165 143.847C229.502 144.431 229.205 145.079 229.165 145.685C229.024 146.504 229.064 147.6 228.089 147.911C224.749 148.01 221.41 147.911 218.07 147.95C217.752 150.024 217.454 152.075 217.136 154.13C217.136 154.208 217.157 154.383 217.157 154.462C219.602 154.439 222.048 154.462 224.493 154.439C225.167 154.401 225.883 154.971 225.822 155.673C225.764 156.396 225.605 157.1 225.507 157.823C225.427 158.313 225.029 158.761 224.51 158.861C221.787 158.917 219.024 158.8 216.303 158.917C215.865 161.87 215.347 164.823 214.89 167.777C214.828 168.361 214.354 168.87 213.756 168.888C212.623 168.909 211.489 168.909 210.355 168.888C209.62 168.909 209.026 168.108 209.225 167.423C210.438 159.719 211.688 152.035 212.941 144.335Z" fill="#242B3D"/>
<path d="M212.941 144.335C213 143.747 213.54 143.22 214.154 143.241C218.748 143.241 223.319 143.259 227.89 143.241C228.386 143.201 228.926 143.416 229.165 143.847C229.502 144.431 229.205 145.079 229.165 145.685C229.024 146.504 229.064 147.6 228.089 147.911C224.749 148.01 221.41 147.911 218.07 147.95C217.752 150.024 217.454 152.075 217.136 154.13C217.136 154.208 217.157 154.383 217.157 154.462C219.602 154.439 222.048 154.462 224.493 154.439C225.167 154.401 225.883 154.971 225.822 155.673C225.764 156.396 225.605 157.1 225.507 157.823C225.427 158.313 225.029 158.761 224.51 158.861C221.787 158.917 219.024 158.8 216.303 158.917C215.865 161.87 215.347 164.823 214.89 167.777C214.828 168.361 214.354 168.87 213.756 168.888C212.623 168.909 211.489 168.909 210.355 168.888C209.62 168.909 209.026 168.108 209.225 167.423C210.438 159.719 211.688 152.035 212.941 144.335Z" stroke="#242B3D" stroke-width="0.141475" stroke-miterlimit="22.926"/>
<path fill-rule="evenodd" clip-rule="evenodd" d="M233.139 143.278C234.171 143.199 235.226 143.26 236.261 143.239C236.895 143.199 237.533 143.687 237.59 144.333C237.59 144.841 237.453 145.352 237.395 145.857C236.559 151.097 235.703 156.336 234.866 161.576C234.751 162.416 234.529 163.318 234.791 164.177C235.088 165.039 236.42 164.665 236.735 165.566C236.934 166.289 236.718 167.051 236.656 167.792C236.598 168.771 235.464 168.986 234.689 169.203C233.001 169.513 230.95 169.282 229.738 167.909C228.865 166.916 228.803 165.505 228.984 164.256C230.038 157.608 231.092 150.961 232.164 144.293C232.226 143.806 232.62 143.356 233.139 143.278Z" fill="#242B3D"/>
<path d="M233.139 143.278C234.171 143.199 235.226 143.26 236.261 143.239C236.895 143.199 237.533 143.687 237.59 144.333C237.59 144.841 237.453 145.352 237.395 145.857C236.559 151.097 235.703 156.336 234.866 161.576C234.751 162.416 234.529 163.318 234.791 164.177C235.088 165.039 236.42 164.665 236.735 165.566C236.934 166.289 236.718 167.051 236.656 167.792C236.598 168.771 235.464 168.986 234.689 169.203C233.001 169.513 230.95 169.282 229.738 167.909C228.865 166.916 228.803 165.505 228.984 164.256C230.038 157.608 231.092 150.961 232.164 144.293C232.226 143.806 232.62 143.356 233.139 143.278Z" stroke="#242B3D" stroke-width="0.141475" stroke-miterlimit="22.926"/>
<path fill-rule="evenodd" clip-rule="evenodd" d="M272.602 144.337C272.66 143.749 273.2 143.244 273.794 143.244H276.818C277.573 143.222 278.188 144.023 278.011 144.728C277.314 149.067 276.598 153.409 275.903 157.747C276.956 157.591 278.147 157.395 278.883 156.555C280.118 155.187 281.133 153.605 281.886 151.942C282.143 151.297 282.285 150.356 283.139 150.239C284.273 150.204 285.425 150.221 286.559 150.239C287.334 150.221 287.909 151.08 287.652 151.785C287.352 152.821 286.856 153.78 286.341 154.699C285.186 156.537 283.915 158.354 282.245 159.8C282.98 161.973 283.915 164.082 284.729 166.215C284.968 166.916 285.544 167.739 285.008 168.424C284.393 169.243 283.237 168.833 282.383 168.929C281.488 168.833 280.198 169.281 279.698 168.285C278.764 166.155 277.988 163.963 277.036 161.834C276.478 161.855 275.903 161.873 275.344 161.816C275.304 161.894 275.225 162.048 275.189 162.126C274.888 164.082 274.569 166.037 274.254 167.993C274.134 168.462 273.755 168.872 273.24 168.912C272.186 168.951 271.11 168.929 270.038 168.929C269.582 168.929 269.165 168.637 268.965 168.245C268.767 167.854 268.887 167.405 268.944 166.978C270.176 159.429 271.389 151.881 272.602 144.337Z" fill="#242B3D"/>
<path d="M272.602 144.337C272.66 143.749 273.2 143.244 273.794 143.244H276.818C277.573 143.222 278.188 144.023 278.011 144.728C277.314 149.067 276.598 153.409 275.903 157.747C276.956 157.591 278.147 157.395 278.883 156.555C280.118 155.187 281.133 153.605 281.886 151.942C282.143 151.297 282.285 150.356 283.139 150.239C284.273 150.204 285.425 150.221 286.559 150.239C287.334 150.221 287.909 151.08 287.652 151.785C287.352 152.821 286.856 153.78 286.341 154.699C285.186 156.537 283.915 158.354 282.245 159.8C282.98 161.973 283.915 164.082 284.729 166.215C284.968 166.916 285.544 167.739 285.008 168.424C284.393 169.243 283.237 168.833 282.383 168.929C281.488 168.833 280.198 169.281 279.698 168.285C278.764 166.155 277.988 163.963 277.036 161.834C276.478 161.855 275.903 161.873 275.344 161.816C275.304 161.894 275.225 162.048 275.189 162.126C274.888 164.082 274.569 166.037 274.254 167.993C274.134 168.462 273.755 168.872 273.24 168.912C272.186 168.951 271.11 168.929 270.038 168.929C269.582 168.929 269.165 168.637 268.965 168.245C268.767 167.854 268.887 167.405 268.944 166.978C270.176 159.429 271.389 151.881 272.602 144.337Z" stroke="#242B3D" stroke-width="0.141475" stroke-miterlimit="22.926"/>
<path fill-rule="evenodd" clip-rule="evenodd" d="M327.848 146.465C327.986 145.917 328.526 145.547 329.08 145.565C329.876 145.586 330.692 145.547 331.507 145.586C332.163 145.603 332.68 146.252 332.601 146.876C332.481 147.99 332.202 149.105 332.122 150.22C332.898 150.22 333.694 150.199 334.47 150.22C335.165 150.22 335.741 150.922 335.622 151.588C335.519 152.194 335.383 152.781 335.285 153.387C335.182 153.896 334.745 154.306 334.249 154.384C333.296 154.442 332.361 154.344 331.427 154.442C331.029 157.063 330.59 159.681 330.173 162.302C330.117 162.908 330.077 163.592 330.435 164.119C330.971 164.763 331.906 164.529 332.659 164.607C333.256 164.785 333.633 165.43 333.535 166.014C333.434 166.68 333.415 167.347 333.256 167.991C333.017 168.714 332.163 168.85 331.507 169.028C329.696 169.495 327.609 169.495 326.001 168.458C324.509 167.46 324.269 165.526 324.428 163.884C324.846 160.718 325.501 157.568 325.86 154.384C325.305 154.402 324.628 154.48 324.212 153.992C323.734 153.504 323.973 152.781 324.053 152.173C324.172 151.527 324.149 150.687 324.867 150.337C325.443 150.12 326.098 150.277 326.715 150.199C327.095 148.949 327.45 147.698 327.848 146.465Z" fill="#242B3D"/>
<path d="M327.848 146.465C327.986 145.917 328.526 145.547 329.08 145.565C329.876 145.586 330.692 145.547 331.507 145.586C332.163 145.603 332.68 146.252 332.601 146.876C332.481 147.99 332.202 149.105 332.122 150.22C332.898 150.22 333.694 150.199 334.47 150.22C335.165 150.22 335.741 150.922 335.622 151.588C335.519 152.194 335.383 152.781 335.285 153.387C335.182 153.896 334.745 154.306 334.249 154.384C333.296 154.442 332.361 154.344 331.427 154.442C331.029 157.063 330.59 159.681 330.173 162.302C330.117 162.908 330.077 163.592 330.435 164.119C330.971 164.763 331.906 164.529 332.659 164.607C333.256 164.785 333.633 165.43 333.535 166.014C333.434 166.68 333.415 167.347 333.256 167.991C333.017 168.714 332.163 168.85 331.507 169.028C329.696 169.495 327.609 169.495 326.001 168.458C324.509 167.46 324.269 165.526 324.428 163.884C324.846 160.718 325.501 157.568 325.86 154.384C325.305 154.402 324.628 154.48 324.212 153.992C323.734 153.504 323.973 152.781 324.053 152.173C324.172 151.527 324.149 150.687 324.867 150.337C325.443 150.12 326.098 150.277 326.715 150.199C327.095 148.949 327.45 147.698 327.848 146.465Z" stroke="#242B3D" stroke-width="0.141475" stroke-miterlimit="22.926"/>
<path fill-rule="evenodd" clip-rule="evenodd" d="M316.614 152.799C317.868 151.566 319.379 150.551 321.106 150.042C321.862 149.711 322.837 150.338 322.815 151.157C322.678 152.233 322.421 153.287 322.239 154.345C322.159 154.872 321.703 155.321 321.167 155.379C319.218 155.712 317.527 156.867 316.175 158.235C315.838 158.644 315.342 159.036 315.281 159.602C314.864 162.339 314.427 165.078 313.992 167.813C313.929 168.401 313.412 168.967 312.796 168.928H309.776C309.08 168.967 308.464 168.284 308.544 167.6C309.417 162.182 310.293 156.789 311.148 151.37C311.189 150.826 311.583 150.298 312.162 150.238C312.897 150.198 313.633 150.22 314.387 150.22C314.984 150.22 315.542 150.747 315.542 151.353C315.542 152.193 315.462 153.052 315.44 153.914C315.919 153.622 316.215 153.151 316.614 152.799Z" fill="#242B3D"/>
<path d="M316.614 152.799C317.868 151.566 319.379 150.551 321.106 150.042C321.862 149.711 322.837 150.338 322.815 151.157C322.678 152.233 322.421 153.287 322.239 154.345C322.159 154.872 321.703 155.321 321.167 155.379C319.218 155.712 317.527 156.867 316.175 158.235C315.838 158.644 315.342 159.036 315.281 159.602C314.864 162.339 314.427 165.078 313.992 167.813C313.929 168.401 313.412 168.967 312.796 168.928H309.776C309.08 168.967 308.464 168.284 308.544 167.6C309.417 162.182 310.293 156.789 311.148 151.37C311.189 150.826 311.583 150.298 312.162 150.238C312.897 150.198 313.633 150.22 314.387 150.22C314.984 150.22 315.542 150.747 315.542 151.353C315.542 152.193 315.462 153.052 315.44 153.914C315.919 153.622 316.215 153.151 316.614 152.799Z" stroke="#242B3D" stroke-width="0.141475" stroke-miterlimit="22.926"/>
<path fill-rule="evenodd" clip-rule="evenodd" d="M242.304 150.317C243.376 150.103 244.493 150.277 245.564 150.221C246.18 150.142 246.835 150.53 246.937 151.14C247.017 151.684 246.858 152.211 246.796 152.742C245.981 157.765 245.165 162.791 244.372 167.813C244.311 168.379 243.836 168.946 243.217 168.929C242.145 168.929 241.073 168.946 239.979 168.911C239.302 168.832 238.806 168.07 238.982 167.421C239.838 162.203 240.656 157.002 241.508 151.784C241.548 151.213 241.707 150.552 242.304 150.317Z" fill="#242B3D"/>
<path d="M242.304 150.317C243.376 150.103 244.493 150.277 245.564 150.221C246.18 150.142 246.835 150.53 246.937 151.14C247.017 151.684 246.858 152.211 246.796 152.742C245.981 157.765 245.165 162.791 244.372 167.813C244.311 168.379 243.836 168.946 243.217 168.929C242.145 168.929 241.073 168.946 239.979 168.911C239.302 168.832 238.806 168.07 238.982 167.421C239.838 162.203 240.656 157.002 241.508 151.784C241.548 151.213 241.707 150.552 242.304 150.317Z" stroke="#242B3D" stroke-width="0.141475" stroke-miterlimit="22.926"/>
<path fill-rule="evenodd" clip-rule="evenodd" d="M301.052 159.784C300.255 161.252 299.143 162.58 297.889 163.713C297.176 164.301 296.259 164.907 295.285 164.711C294.333 164.514 293.876 163.538 293.655 162.699C293.159 160.507 293.615 158.121 294.869 156.226C295.426 155.346 296.321 154.684 297.353 154.409C298.806 154.057 300.334 154.231 301.747 154.623L301.826 154.701C301.649 156.4 301.309 158.085 301.052 159.784ZM306.637 150.576C303.674 150.028 300.654 149.64 297.65 149.932C294.967 150.263 292.265 151.457 290.616 153.626C288.326 156.479 287.552 160.311 288.07 163.87C288.349 165.573 289.102 167.293 290.515 168.348C291.826 169.346 293.598 169.48 295.187 169.227C297.414 168.796 299.302 167.39 300.853 165.826C300.932 166.491 300.773 167.154 300.813 167.8C300.853 168.404 301.41 168.975 302.027 168.935H304.055C304.648 168.935 305.148 168.387 305.188 167.82C306.043 162.52 306.898 157.241 307.731 151.965C307.85 151.299 307.314 150.655 306.637 150.576Z" fill="#242B3D"/>
<path d="M301.052 159.784C300.255 161.252 299.143 162.58 297.889 163.713C297.176 164.301 296.259 164.907 295.285 164.711C294.333 164.514 293.876 163.538 293.655 162.699C293.159 160.507 293.615 158.121 294.869 156.226C295.426 155.346 296.321 154.684 297.353 154.409C298.806 154.057 300.334 154.231 301.747 154.623L301.826 154.701C301.649 156.4 301.309 158.085 301.052 159.784ZM306.637 150.576C303.674 150.028 300.654 149.64 297.65 149.932C294.967 150.263 292.265 151.457 290.616 153.626C288.326 156.479 287.552 160.311 288.07 163.87C288.349 165.573 289.102 167.293 290.515 168.348C291.826 169.346 293.598 169.48 295.187 169.227C297.414 168.796 299.302 167.39 300.853 165.826C300.932 166.491 300.773 167.154 300.813 167.8C300.853 168.404 301.41 168.975 302.027 168.935H304.055C304.648 168.935 305.148 168.387 305.188 167.82C306.043 162.52 306.898 157.241 307.731 151.965C307.85 151.299 307.314 150.655 306.637 150.576Z" stroke="#242B3D" stroke-width="0.141475" stroke-miterlimit="22.926"/>
<path fill-rule="evenodd" clip-rule="evenodd" d="M262.045 158.822C261.926 160.621 261.27 162.438 259.998 163.748C258.347 165.294 255.845 165.078 253.815 164.55C253.776 164.493 253.714 164.375 253.696 164.315C254.016 162.616 254.175 160.895 254.57 159.214C255.686 157.416 257.036 155.595 258.962 154.602C259.68 154.267 260.655 154.345 261.172 154.99C262.045 156.065 262.125 157.512 262.045 158.822ZM267.613 156.849C267.591 154.894 267.054 152.842 265.664 151.374C264.708 150.337 263.276 149.81 261.886 149.828C259.579 149.75 257.413 150.864 255.724 152.35C255.345 152.646 255.087 153.073 254.671 153.308C254.671 152.663 254.729 152.019 254.711 151.352C254.729 150.747 254.152 150.22 253.555 150.22H251.53C250.893 150.22 250.374 150.768 250.336 151.374C249.085 159.193 247.81 167.015 246.56 174.834C246.38 175.557 247.017 176.301 247.77 176.28C248.886 176.263 250.02 176.359 251.109 176.201C251.987 175.967 251.965 174.969 252.107 174.246C252.425 172.525 252.643 170.806 252.842 169.066C256.757 169.808 261.31 169.301 264.234 166.388C266.616 163.827 267.732 160.289 267.613 156.849Z" fill="#242B3D"/>
<path d="M262.045 158.822C261.926 160.621 261.27 162.438 259.998 163.748C258.347 165.294 255.845 165.078 253.815 164.55C253.776 164.493 253.714 164.375 253.696 164.315C254.016 162.616 254.175 160.895 254.57 159.214C255.686 157.416 257.036 155.595 258.962 154.602C259.68 154.267 260.655 154.345 261.172 154.99C262.045 156.065 262.125 157.512 262.045 158.822ZM267.613 156.849C267.591 154.894 267.054 152.842 265.664 151.374C264.708 150.337 263.276 149.81 261.886 149.828C259.579 149.75 257.413 150.864 255.724 152.35C255.345 152.646 255.087 153.073 254.671 153.308C254.671 152.663 254.729 152.019 254.711 151.352C254.729 150.747 254.152 150.22 253.555 150.22H251.53C250.893 150.22 250.374 150.768 250.336 151.374C249.085 159.193 247.81 167.015 246.56 174.834C246.38 175.557 247.017 176.301 247.77 176.28C248.886 176.263 250.02 176.359 251.109 176.201C251.987 175.967 251.965 174.969 252.107 174.246C252.425 172.525 252.643 170.806 252.842 169.066C256.757 169.808 261.31 169.301 264.234 166.388C266.616 163.827 267.732 160.289 267.613 156.849Z" stroke="#242B3D" stroke-width="0.141921" stroke-miterlimit="22.926"/>
<path fill-rule="evenodd" clip-rule="evenodd" d="M244.471 143.104C245.525 142.947 246.739 142.851 247.633 143.497C248.188 143.906 248.387 144.65 248.347 145.312C248.387 146.41 247.873 147.582 246.877 148.148C246.004 148.619 244.95 148.658 243.975 148.558C243.32 148.48 242.664 148.131 242.323 147.542C241.57 145.84 242.505 143.435 244.471 143.104Z" fill="#242B3D"/>
<path d="M244.471 143.104C245.525 142.947 246.739 142.851 247.633 143.497C248.188 143.906 248.387 144.65 248.347 145.312C248.387 146.41 247.873 147.582 246.877 148.148C246.004 148.619 244.95 148.658 243.975 148.558C243.32 148.48 242.664 148.131 242.323 147.542C241.57 145.84 242.505 143.435 244.471 143.104Z" stroke="#242B3D" stroke-width="0.141475" stroke-miterlimit="22.926"/>
</g>
</g>
</g>
<defs>
<clipPath id="clip0_698_1614">
<rect width="500" height="173.913" fill="white"/>
</clipPath>
</defs>
</svg>
