<?xml version="1.0" encoding="UTF-8"?>
<svg id="Layer_1" xmlns="http://www.w3.org/2000/svg" version="1.1" viewBox="0 0 200 200">
  <!-- Generator: Adobe Illustrator 30.2.1, SVG Export Plug-In . SVG Version: 2.1.1 Build 1)  -->
  <defs>
    <style>
      .st0 {
        fill: #ffec00;
      }
    </style>
  </defs>
  <path class="st0" d="M181.2,93.8h-6.5c-1.5-17.7-9.2-34.2-21.7-46.8-12.5-12.5-29.1-20.2-46.8-21.7v-6.5c0-1.7-.7-3.2-1.8-4.4-1.2-1.2-2.8-1.8-4.4-1.8s-3.2.7-4.4,1.8c-1.2,1.2-1.8,2.8-1.8,4.4v6.5c-17.7,1.5-34.2,9.2-46.8,21.7-12.5,12.5-20.2,29.1-21.7,46.8h-6.5c-1.7,0-3.2.7-4.4,1.8-1.2,1.2-1.8,2.8-1.8,4.4s.7,3.2,1.8,4.4c1.2,1.2,2.8,1.8,4.4,1.8h6.5c1.5,17.7,9.2,34.2,21.7,46.8,12.5,12.5,29.1,20.2,46.8,21.7v6.5c0,1.7.7,3.2,1.8,4.4,1.2,1.2,2.8,1.8,4.4,1.8s3.2-.7,4.4-1.8c1.2-1.2,1.8-2.8,1.8-4.4v-6.5c17.7-1.5,34.2-9.2,46.8-21.7,12.5-12.5,20.2-29.1,21.7-46.8h6.5c1.7,0,3.2-.7,4.4-1.8,1.2-1.2,1.8-2.8,1.8-4.4s-.7-3.2-1.8-4.4c-1.2-1.2-2.8-1.8-4.4-1.8ZM156.2,106.2h5.9c-1.5,14.3-7.8,27.7-18,37.9-10.2,10.2-23.6,16.6-37.9,18v-5.9c0-1.7-.7-3.2-1.8-4.4-1.2-1.2-2.8-1.8-4.4-1.8s-3.2.7-4.4,1.8c-1.2,1.2-1.8,2.8-1.8,4.4v5.9c-14.3-1.5-27.7-7.8-37.9-18-10.2-10.2-16.6-23.6-18-37.9h5.9c1.7,0,3.2-.7,4.4-1.8,1.2-1.2,1.8-2.8,1.8-4.4s-.7-3.2-1.8-4.4c-1.2-1.2-2.8-1.8-4.4-1.8h-5.9c1.5-14.3,7.8-27.7,18-37.9s23.6-16.6,37.9-18v5.9c0,1.7.7,3.2,1.8,4.4,1.2,1.2,2.8,1.8,4.4,1.8s3.2-.7,4.4-1.8c1.2-1.2,1.8-2.8,1.8-4.4v-5.9c14.3,1.5,27.7,7.8,37.9,18,10.2,10.2,16.6,23.6,18,37.9h-5.9c-1.7,0-3.2.7-4.4,1.8-1.2,1.2-1.8,2.8-1.8,4.4s.7,3.2,1.8,4.4c1.2,1.2,2.8,1.8,4.4,1.8ZM131.2,100c0,6.2-1.8,12.2-5.3,17.4-3.4,5.1-8.3,9.1-14,11.5-5.7,2.4-12,3-18.1,1.8-6.1-1.2-11.6-4.2-16-8.6s-7.3-9.9-8.6-16c-1.2-6.1-.6-12.3,1.8-18.1,2.4-5.7,6.4-10.6,11.5-14,5.1-3.4,11.2-5.3,17.4-5.3s16.2,3.3,22.1,9.2c5.9,5.9,9.2,13.8,9.2,22.1Z"/>
</svg>