<?xml version="1.0" encoding="UTF-8"?>
<svg id="Layer_1" xmlns="http://www.w3.org/2000/svg" version="1.1" viewBox="0 0 32 32">
  <!-- Generator: Adobe Illustrator 30.2.1, SVG Export Plug-In . SVG Version: 2.1.1 Build 1)  -->
  <defs>
    <style>
      .st0 {
        fill: #fff;
      }
    </style>
  </defs>
  <path class="st0" d="M25.7,24.3c.4.4.4,1,0,1.4s-1,.4-1.4,0h0l-8.3-8.3-8.3,8.3c-.4.4-1,.4-1.4,0s-.4-1,0-1.4l8.3-8.3L6.3,7.7c-.4-.4-.4-1,0-1.4s1-.4,1.4,0h0l8.3,8.3,8.3-8.3c.4-.4,1-.4,1.4,0s.4,1,0,1.4h0l-8.3,8.3,8.3,8.3Z"/>
</svg>